<!DOCTYPE svg PUBLIC "-//W3C//DTD SVG 1.1//EN" "http://www.w3.org/Graphics/SVG/1.1/DTD/svg11.dtd">
<!-- Uploaded to: SVG Repo, www.svgrepo.com, Transformed by: SVG Repo Mixer Tools -->
<svg height="800px" width="800px" version="1.1" id="_x32_" xmlns="http://www.w3.org/2000/svg" xmlns:xlink="http://www.w3.org/1999/xlink" viewBox="0 0 512 512" xml:space="preserve" fill="#000000">
<g id="SVGRepo_bgCarrier" stroke-width="0"/>
<g id="SVGRepo_tracerCarrier" stroke-linecap="round" stroke-linejoin="round"/>
<g id="SVGRepo_iconCarrier"> <style type="text/css"> .st0{fill:#FF0000;} </style> <g> <path class="st0" d="M506.503,74.285C491.869,29.854,450.569,0,403.772,0H108.228C61.366,0,20.081,29.879,5.496,74.39 C1.854,85.309,0,96.699,0,108.228v295.544c0,1.35,0,2.691,0.082,4.195c0.52,14.626,4.016,28.853,10.358,42.244 C28.406,487.748,66.796,512,108.228,512h295.544c40.764,0,78.586-23.512,96.91-60.049l0.814-1.748 c6.341-13.211,9.821-27.39,10.342-41.935l0.048-0.894c0.131-1.203,0.114-2.407,0.114-3.602V108.228 C511.999,96.634,510.162,85.219,506.503,74.285z M33.301,147.114l135.398,118.04L33.301,383.097V147.114z M476.829,420.544 c-7.886,34.236-37.919,58.155-73.057,58.155H108.228c-35.203,0-65.252-23.959-73.057-58.268l-1.09-4.854l153.578-133.911 l22.878,19.926c12.536,10.968,28.536,17.008,45.723,17.008c16.57,0,32.586-6.041,45.138-17.016l22.878-19.919l153.675,134.016 L476.829,420.544z M478.699,383.203l-135.464-118.13l135.464-118.032V383.203z M478.699,113.927L284.926,282.861 c-8.032,6.943-18.341,10.764-29.008,10.764c-10.618,0-20.878-3.821-28.942-10.789L33.301,113.927v-5.7 c0-41.317,33.61-74.927,74.927-74.927h295.544c41.317,0,74.927,33.61,74.927,74.927V113.927z"/> </g> </g>
</svg>